<svg xmlns="http://www.w3.org/2000/svg" width="33.591" height="38.681" viewBox="0 0 33.591 38.681">
    <defs>
        <style>
            .cls-1{fill:#8181a8}
        </style>
    </defs>
    <path id="Union_4" d="M2209.756-13100.376l-14.829-3.413c-.561-.129-.927-.442-.927-.8v-11.112l7.373-1.643v-2.99l4.1.963v2.974c0 .67-.914 1.21-2.048 1.21a2.468 2.468 0 0 1-1.817-.646l-4.165.93 12.316 2.839a4.869 4.869 0 0 0 2.091 0l12.3-2.829-4.287-.953a2.5 2.5 0 0 1-1.83.659c-1.134 0-2.048-.54-2.048-1.21v-2.974l4.1-.986v3l7.482 1.659-.013.017.043-.011v11.106c0 .355-.369.669-.93.8l-14.815 3.413a4.8 4.8 0 0 1-1.045.113 4.8 4.8 0 0 1-1.051-.116zm11.759-11.313l-5.695 1.315c-.561.129-.93.445-.93.8v4.646c0 .606 1.026 1.019 1.982.8l5.695-1.319c.561-.129.927-.445.927-.8v-4.646c0-.494-.676-.858-1.443-.858a2.34 2.34 0 0 0-.536.062zm-12.768-2.685v-6.571l-8.616-2.012c-1.052-.251-1.556-.953-1.147-1.576a2.565 2.565 0 0 1 2.391-.729v-4.356l4.1.963v4.34l3.278.758v-6.681l-8.616-2.015c-1.052-.25-1.556-.953-1.147-1.572a2.567 2.567 0 0 1 2.391-.729v-3.179c0-.669.913-1.21 2.048-1.21s2.048.541 2.048 1.21v4.126l3.278.765v-3.354c0-.67.913-1.214 2.048-1.214s2.048.544 2.048 1.214v3.33l3.142-.758v-4.109c0-.669.914-1.21 2.048-1.21s2.048.541 2.048 1.21v3.152a2.506 2.506 0 0 1 2.2.735c.422.624-.069 1.336-1.121 1.587l-8.316 2.011v6.678l3.142-.762v-4.33l4.1-.989v4.366a2.492 2.492 0 0 1 2.2.735c.422.623-.069 1.336-1.121 1.583l-8.316 2.015v6.578c0 .67-.913 1.21-2.048 1.21s-2.062-.536-2.062-1.21z" class="cls-1" data-name="Union 4" transform="translate(-2194.001 13138.943)"/>
</svg>
