<svg xmlns="http://www.w3.org/2000/svg" width="51.375" height="30.021" viewBox="0 0 51.375 30.021">
    <defs>
        <style>
            .cls-1{fill:#8181a8}
        </style>
    </defs>
    <path id="Union_2" d="M2239-12879.908a4.34 4.34 0 0 1 4.34-4.337 4.344 4.344 0 0 1 4.34 4.337 4.342 4.342 0 0 1-4.34 4.34 4.34 4.34 0 0 1-4.34-4.34zm3.158 0a1.18 1.18 0 0 0 1.182 1.182 1.18 1.18 0 0 0 1.182-1.182 1.181 1.181 0 0 0-1.182-1.183 1.181 1.181 0 0 0-1.18 1.183zm-36.36 0a4.342 4.342 0 0 1 4.34-4.337 4.333 4.333 0 0 1 4.34 4.337 4.34 4.34 0 0 1-4.34 4.34 4.343 4.343 0 0 1-4.338-4.34zm3.158 0a1.18 1.18 0 0 0 1.182 1.182 1.178 1.178 0 0 0 1.182-1.182 1.179 1.179 0 0 0-1.182-1.183 1.181 1.181 0 0 0-1.179 1.183zm39.99-.085a5.59 5.59 0 0 0-5.587-5.587 5.589 5.589 0 0 0-5.584 5.587 1.1 1.1 0 0 1-1.108 1.1 1.1 1.1 0 0 1-1.1-1.1 7.025 7.025 0 0 1 .074-1.107h-17.775a9.009 9.009 0 0 1 .074 1.107 1.1 1.1 0 0 1-1.108 1.1 1.1 1.1 0 0 1-1.1-1.1 5.59 5.59 0 0 0-5.587-5.587 5.587 5.587 0 0 0-5.584 5.587 1.1 1.1 0 0 1-1.108 1.095 1.1 1.1 0 0 1-1.1-1.107 8.158 8.158 0 0 1 .107-1.267 1.06 1.06 0 0 1-.453-.858 1.053 1.053 0 0 1 .755-1.01h.238a7.629 7.629 0 0 1 1.15-1.827h-1.095v-1.813a3.952 3.952 0 0 1 1.02-2.592l9.409-10.61a3.889 3.889 0 0 1 2.931-1.309h2.374a1.988 1.988 0 0 1 1.985 2.093v15.521h15.683a6.81 6.81 0 0 1 1.075-1.5h-13.665a1.15 1.15 0 0 1-1.16-1.095v-15.993a1.017 1.017 0 0 0-1.02-1.065h-2.448a1.122 1.122 0 0 1-1.1-1.128 1.122 1.122 0 0 1 1.1-1.127h2.448a3.224 3.224 0 0 1 3.171 3.32v.978h26.1v-1.622a1.124 1.124 0 0 1 1.127-1.108 1.124 1.124 0 0 1 1.127 1.108v14.607a1.987 1.987 0 0 1-1.953 2.05h-3.32a7.032 7.032 0 0 1 2.29 2.578h1.846a1.314 1.314 0 0 1 1.3 1.289 1.278 1.278 0 0 1-1.257 1.289h-1.03a9.009 9.009 0 0 1 .074 1.107 1.1 1.1 0 0 1-1.108 1.1 1.1 1.1 0 0 1-1.105-1.104zm-33.49-19l-6.339 7.6a.885.885 0 0 0 .635 1.461l8.045.01a.845.845 0 0 0 .826-.881v-7.55c0-.482-.333-1.011-.806-1.011h-1.717a.9.9 0 0 0-.641.364zm30.857 1.784l-3.993 6.034a.409.409 0 0 0 .321.625h2.546a.434.434 0 0 0 .324-.2l3.994-6.037a.417.417 0 0 0-.321-.635h-2.546a.442.442 0 0 0-.322.211zm-8.194 0l-3.984 6.034a.41.41 0 0 0 .321.625H2237a.454.454 0 0 0 .324-.217l3.974-6.034a.4.4 0 0 0-.311-.625h-2.546a.436.436 0 0 0-.319.215zm-8.185 0l-3.984 6.034a.41.41 0 0 0 .321.625h2.536a.442.442 0 0 0 .321-.217l3.987-6.034a.4.4 0 0 0-.311-.625h-2.546a.436.436 0 0 0-.321.215z" class="cls-1" data-name="Union 2" transform="translate(-2201.998 12905.59)"/>
</svg>
