<svg xmlns="http://www.w3.org/2000/svg" width="50.375" height="37.456" viewBox="0 0 50.375 37.456">
    <defs>
        <style>
            .cls-1{fill:#8181a8}
        </style>
    </defs>
    <path id="Union_3" d="M2204.853-12981.222a4.872 4.872 0 0 1-4.852-4.875 4.958 4.958 0 0 1 3.182-4.577h3.159a.794.794 0 0 0 .787-.787.792.792 0 0 0-.787-.788h-3.149a3.9 3.9 0 0 1 3.865-3.888h7.11a1.306 1.306 0 0 1 1.062.588l.408.631c.294.432.967.526 1.147-.138l1.542-7.814a1.51 1.51 0 0 1 1.47-1.238h5.192a1.5 1.5 0 0 1 1.47 1.218l1.983 10.651h-2.457a.792.792 0 0 0-.787.788.792.792 0 0 0 .787.787h2.8a4.937 4.937 0 0 1 3.2 4.567 4.875 4.875 0 0 1-4.855 4.875zm-1.7-4.875a1.736 1.736 0 0 0 1.7 1.735h22.276a1.736 1.736 0 0 0 1.7-1.735 1.735 1.735 0 0 0-1.7-1.731h-22.276a1.735 1.735 0 0 0-1.702 1.728zm6.459-5.354a.792.792 0 0 0 .788.787h5.43a.792.792 0 0 0 .787-.787.792.792 0 0 0-.787-.788h-5.43a.786.786 0 0 0-.79.788zm12.174-3.836h3.244a.72.72 0 0 0 .706-.827l-.8-5.273a.73.73 0 0 0-.7-.62h-2.447zm-2.016-6.1l-.8 5.283a.717.717 0 0 0 .706.817h1.062v-6.721h-.265a.722.722 0 0 0-.705.62zm19.787 13.654a1.236 1.236 0 0 1-1.049-.568.519.519 0 0 1-.085-.114l-2.068-4.516a.786.786 0 0 1 .389-1.042.785.785 0 0 1 1.039.389l1.565 3.414a.8.8 0 0 0 .631.327.857.857 0 0 0 .314-.075.8.8 0 0 0 .412-1.049l-.4-.957h1.836l2.47-3.52a1.367 1.367 0 0 1 1.163-.575h.35a1.087 1.087 0 0 1-.065-.389v-6.462a2.624 2.624 0 0 1-2.1-2.572v-4.169l2.248-.705a.79.79 0 0 0 .516-.987.8.8 0 0 0-.987-.516l-1.787.559v-.033l-10.031 3.11-5.8 7.247-.6-3.2a1.5 1.5 0 0 0-1.47-1.241h-2.448l6.469-6.828a3.23 3.23 0 0 1 1.839-1.121l12.037-2.47v-.252a2.627 2.627 0 0 1 2.627-2.627 2.627 2.627 0 0 1 2.624 2.627v19.643a1.453 1.453 0 0 1-.062.429 1.373 1.373 0 0 1 1.241 1.365v3.656a3.2 3.2 0 0 1-3.205 3.225zm6-26.657a.866.866 0 0 0 .863.859.856.856 0 0 0 .859-.859.866.866 0 0 0-.859-.863.867.867 0 0 0-.867.862zm-42.36 22.142v.02z" class="cls-1" data-name="Union 3" transform="translate(-2200.001 13018.678)"/>
</svg>
