<svg xmlns="http://www.w3.org/2000/svg" width="47.097" height="48.001" viewBox="0 0 47.097 48.001">
    <defs>
        <style>
            .cls-1{fill:#2e2f6f}
        </style>
    </defs>
    <path id="Path_272" d="M46.847 46.73c-.424-2.563-2.281-4.844-5.517-6.8a32.622 32.622 0 0 0-8.71-3.43 4.263 4.263 0 0 1-3.019-2 4.2 4.2 0 0 1-.348-2.422 2.633 2.633 0 0 0 2.009-2.053l.967-4.67a30.8 30.8 0 0 0 1.325-9.188 1.224 1.224 0 0 0-.054-.348 16.155 16.155 0 0 0 2.118-.771 1.683 1.683 0 0 0 .847-2.161l-.022-.043a1.671 1.671 0 0 0-1.857-1.032l-1 .185v-.022a28.341 28.341 0 0 1-3.855 1.151.852.852 0 0 1-.239.022 1.1 1.1 0 0 1-1.064-.858 1.082 1.082 0 0 1 .826-1.29 26.692 26.692 0 0 0 4.214-1.325A8.722 8.722 0 0 0 27.7 2.769v6.136a1.086 1.086 0 0 1-2.172 0V2.324h-.011A2.334 2.334 0 0 0 23.161 0h-.2a2.378 2.378 0 0 0-2.389 2.335h-.011v6.57a1.086 1.086 0 0 1-2.172 0V2.8a8.7 8.7 0 0 0-5.658 6.9 27.452 27.452 0 0 0 4.17 1.3 1.088 1.088 0 0 1-.239 2.15 1.95 1.95 0 0 1-.239-.022A29.093 29.093 0 0 1 12.627 12v.011l-1.14-.2a1.689 1.689 0 0 0-.934 3.225 20.145 20.145 0 0 0 2.465.793 1 1 0 0 0 .293.174.878.878 0 0 0-.011.174 29.557 29.557 0 0 0 1.607 9.991l.717 3.855a2.665 2.665 0 0 0 1.836 2.057 3.927 3.927 0 0 1-.239 2.281 4.5 4.5 0 0 1-3.215 2.15 33.991 33.991 0 0 0-8.7 3.443C2.06 41.9.2 44.178-.22 46.73a1.09 1.09 0 0 0 .89 1.249.529.529 0 0 0 .13.011.877.877 0 0 0 .174.01h7.4a1.089 1.089 0 0 0 1.086-1.086v-6.623a34.688 34.688 0 0 1 5.072-1.683 9.521 9.521 0 0 0 1.879-.673v8.981A1.089 1.089 0 0 0 17.492 48h11.186a1.089 1.089 0 0 0 1.086-1.086v-9.208a8.571 8.571 0 0 0 2.313.912 33.118 33.118 0 0 1 4.854 1.564v6.733A1.089 1.089 0 0 0 38.018 48H45.4a1.472 1.472 0 0 0 .217-.022c.043 0 .087.011.13.011a.934.934 0 0 0 .174-.011 1.09 1.09 0 0 0 .926-1.248zM23.2 37.945a4.1 4.1 0 0 1-3.225-1.357 4.683 4.683 0 0 1-.793-1.3c0-.011.011-.011.011-.022a5.788 5.788 0 0 0 .5-2.78c.814.141 1.64.261 2.335.337a8.884 8.884 0 0 0 1.216.109h.358a9.375 9.375 0 0 0 1.26-.109c.652-.076 1.412-.2 2.172-.326a6.509 6.509 0 0 0 .391 2.5 4.538 4.538 0 0 1-4.225 2.948zm-2.569-13.369a5.351 5.351 0 0 1 1.933-.358h1.618a5.541 5.541 0 0 1 1.629.25l-.793 2.574h-3.649zm7.769-1.651a.6.6 0 0 0-.087.065l-1.738-.565a7.727 7.727 0 0 0-2.378-.38s-1.064-.022-1.618 0a16.927 16.927 0 0 0-2.454.4 14.513 14.513 0 0 0-1.651.576 1.018 1.018 0 0 0-.13-.1l-2.454-1.64a33.063 33.063 0 0 1-.413-4.941 48.3 48.3 0 0 0 7.95.641 45.222 45.222 0 0 0 7.95-.673 31.818 31.818 0 0 1-.391 4.876l-.065.033z" class="cls-1" data-name="Path 272" transform="translate(.236)"/>
</svg>