<svg xmlns="http://www.w3.org/2000/svg" width="241.053" height="50.615" viewBox="0 0 241.053 50.615">
    <defs>
        <style>
            .cls-1{fill:#221f52;font-size:24px;font-family:Avenir-Black,Avenir;font-weight:800}.cls-2{fill:#4c59a0}.cls-3{fill:#211f53}
        </style>
    </defs>
    <g id="Group_227" data-name="Group 227" transform="translate(-38.473 -32.461)">
        <text id="MAPTRACKER" class="cls-1" transform="translate(38.473 65.047)">
            <tspan x="0" y="0">MAPTRACKER</tspan>
        </text>
        <g id="Group_223" data-name="Group 223" transform="translate(228.912 32.461)">
            <path id="Path_323" d="M494.037 166.595A25.309 25.309 0 1 0 444.959 178h6.441a1.26 1.26 0 0 0 1.26-1.26v-17.697a.752.752 0 0 1 1.28-.538l14.284 14.033a1.3 1.3 0 0 0 1.826 0l14.283-14.033a.752.752 0 0 1 1.28.538v17.693a1.26 1.26 0 0 0 1.26 1.26h6.06a25.342 25.342 0 0 0 1.104-11.401z" class="cls-2" data-name="Path 323" transform="translate(-443.64 -144.627)"/>
            <path id="Path_324" d="M480.32 183.628v-10.495a.349.349 0 0 0-.592-.251l-9.276 8.951a1.593 1.593 0 0 1-2.211 0l-9.276-8.951a.349.349 0 0 0-.592.251v10.495a1.391 1.391 0 0 1-1.391 1.391h-9.094a25.3 25.3 0 0 0 42.531 0h-8.708a1.391 1.391 0 0 1-1.391-1.391z" class="cls-3" data-name="Path 324" transform="translate(-443.847 -145.998)"/>
        </g>
    </g>
</svg>
