<?xml version="1.0" encoding="UTF-8"?>
<svg width="18px" height="20px" viewBox="0 0 18 20" version="1.1" xmlns="http://www.w3.org/2000/svg" xmlns:xlink="http://www.w3.org/1999/xlink">
    <!-- Generator: Sketch 52.6 (67491) - http://www.bohemiancoding.com/sketch -->
    <title>notification</title>
    <desc>Created with Sketch.</desc>
    <g id="Page-1" stroke="none" stroke-width="1" fill="none" fill-rule="evenodd">
        <g id="Artboard" transform="translate(-255.000000, -101.000000)" fill="#AAACAE">
            <path d="M269.232123,109.319732 C266.66652,103.775821 265.333936,101.670834 261.141558,101.758107 C259.648378,101.788892 260.007821,100.672427 258.869585,101.09608 C257.731348,101.519732 258.708145,102.139676 257.54347,103.098542 C254.278388,105.790428 254.57933,108.280655 256.094447,114.214891 C256.732614,116.715004 254.556267,116.83758 255.417468,119.260306 C256.046072,121.0275 260.680019,121.766914 265.571315,119.944363 C270.461486,118.122659 273.547409,114.506364 272.919087,112.740017 C272.057605,110.316162 270.314108,111.654338 269.232123,109.319732 Z M265.039463,118.451413 C260.672426,120.078802 257.083057,119.122195 256.93146,118.696566 C256.670175,117.9628 258.341108,115.514656 263.334499,113.654541 C268.32789,111.794426 271.113996,112.483849 271.405094,113.303757 C271.577503,113.787003 269.407907,116.824306 265.039463,118.451413 Z M263.636566,114.504105 C261.353624,115.354798 259.765943,116.327786 258.739926,117.203616 C259.461625,117.863383 260.816428,118.024654 262.166449,117.521355 C263.884914,116.88164 264.939618,115.412132 264.521955,114.239181 C264.517736,114.225059 264.509861,114.212914 264.504517,114.19851 C264.223263,114.292278 263.934414,114.392543 263.636566,114.504105 Z" id="notification" transform="translate(264.000000, 111.000000) scale(-1, 1) translate(-264.000000, -111.000000) "></path>
        </g>
    </g>
</svg>