<svg xmlns="http://www.w3.org/2000/svg" width="50" height="38" viewBox="0 0 50 38">
    <defs>
        <style>
            .cls-1{fill:#232157}
        </style>
    </defs>
    <path id="notofication-icon" d="M8118.008 1091.833l-2.1-2.035a11.187 11.187 0 0 0-.124-15.722l2.072-2.067a14.106 14.106 0 0 1 .155 19.823zm-4.234-4.042l-2.094-2.044a5.35 5.35 0 0 0-.042-7.536l2.071-2.067a8.268 8.268 0 0 1 .065 11.647zm-12.631 10.286a4.4 4.4 0 0 1-8.286 0h-13.242l2.8-4.191a14.058 14.058 0 0 0 2.378-7.837v-7.83a12.293 12.293 0 0 1 10.7-12.2V1063h2.93v3.005a12.193 12.193 0 0 1 10.78 12.1v7.946a14.063 14.063 0 0 0 2.378 7.837l2.8 4.191zm5.135-12.028v-7.949a9.267 9.267 0 0 0-9.277-9.256h-.033a9.342 9.342 0 0 0-9.244 9.373v7.83a16.967 16.967 0 0 1-2.64 9.1h23.835a16.967 16.967 0 0 1-2.642-9.098zm-23.957-.3l-2.094 2.044a8.269 8.269 0 0 1 .064-11.648l2.072 2.067a5.35 5.35 0 0 0-.042 7.536zm-4.225 4.051l-2.1 2.035a14.106 14.106 0 0 1 .156-19.823l2.072 2.067a11.186 11.186 0 0 0-.124 15.722z" class="cls-1" transform="translate(-8072 -1063)"/>
</svg>
